<?xml version="1.0" encoding="utf-8"?>
<!-- Generator: Adobe Illustrator 21.0.2, SVG Export Plug-In . SVG Version: 6.00 Build 0)  -->
<svg version="1.1" id="Layer_1" xmlns="http://www.w3.org/2000/svg" xmlns:xlink="http://www.w3.org/1999/xlink" x="0px" y="0px"
	 viewBox="0 0 1920 2160" style="enable-background:new 0 0 1920 2160;" xml:space="preserve">
<style type="text/css">
	.st0{clip-path:url(#SVGID_2_);}
	.st1{opacity:0.4;fill:url(#SVGID_3_);}
	.st2{opacity:0.5;fill:url(#SVGID_4_);}
	.st3{opacity:0.2;fill:url(#SVGID_5_);}
	.st4{opacity:0.2;fill:url(#SVGID_6_);}
	.st5{clip-path:url(#SVGID_8_);}
	.st6{opacity:0.4;fill:url(#SVGID_9_);}
	.st7{opacity:0.5;clip-path:url(#SVGID_8_);fill:url(#SVGID_10_);}
	.st8{opacity:0.5;clip-path:url(#SVGID_8_);fill:url(#SVGID_11_);}
	.st9{clip-path:url(#SVGID_13_);}
	.st10{opacity:0.5;}
	.st11{fill:url(#SVGID_14_);}
	.st12{fill:url(#SVGID_15_);}
	.st13{fill:url(#SVGID_16_);}
</style>
<g>
	<defs>
		<rect id="SVGID_1_" width="1920" height="2160"/>
	</defs>
	<clipPath id="SVGID_2_">
		<use xlink:href="#SVGID_1_"  style="overflow:visible;"/>
	</clipPath>
	<g class="st0">
		
			<linearGradient id="SVGID_3_" gradientUnits="userSpaceOnUse" x1="577" y1="426.0379" x2="78.5464" y2="426.0379" gradientTransform="matrix(0.7071 -0.7071 0.7071 0.7071 -300.5727 318.3532)">
			<stop  offset="0" style="stop-color:#E6E6E6"/>
			<stop  offset="1" style="stop-color:#E6E6E6;stop-opacity:0"/>
		</linearGradient>
		<path class="st1" d="M574.4,724.3l-455.2,455.2c-61.6,61.6-161.6,61.6-223.2,0l-455.2-455.2c-61.6-61.6-61.6-161.6,0-223.2
			L-104,45.8c61.6-61.6,161.6-61.6,223.2,0l455.2,455.2C636.1,562.7,636.1,662.6,574.4,724.3z"/>
		
			<linearGradient id="SVGID_4_" gradientUnits="userSpaceOnUse" x1="2148.948" y1="2408.323" x2="333.609" y2="2408.323" gradientTransform="matrix(0.7071 -0.7071 0.7071 0.7071 -300.5727 318.3532)">
			<stop  offset="0" style="stop-color:#E6E6E6"/>
			<stop  offset="1" style="stop-color:#E6E6E6;stop-opacity:0"/>
		</linearGradient>
		<path class="st2" d="M2883.4,1818.6L1859.9,2842.1c-70.4,70.4-184.5,70.4-254.9,0L581.6,1818.6c-70.4-70.4-70.4-184.5,0-254.9
			L1605.1,540.3c70.4-70.4,184.5-70.4,254.9,0l1023.4,1023.4C2953.8,1634.1,2953.8,1748.2,2883.4,1818.6z"/>
		
			<linearGradient id="SVGID_5_" gradientUnits="userSpaceOnUse" x1="1030" y1="2305.2068" x2="420.3075" y2="2305.2068" gradientTransform="matrix(1.0432 -1.0432 0.1983 0.1983 -270.6484 1390.9133)">
			<stop  offset="0" style="stop-color:#E6E6E6"/>
			<stop  offset="1" style="stop-color:#E6E6E6;stop-opacity:0"/>
		</linearGradient>
		<path class="st3" d="M1388.7,902.3L197.8,2093.2C154,2137,83,2137,39.2,2093.2l-98-97.9c-43.8-43.8-43.8-114.8,0-158.6
			L1132.2,645.8c43.8-43.8,114.8-43.8,158.6,0l97.9,98C1432.5,787.5,1432.5,858.5,1388.7,902.3z"/>
		
			<linearGradient id="SVGID_6_" gradientUnits="userSpaceOnUse" x1="125.0733" y1="955.5066" x2="-179.3352" y2="955.5066" gradientTransform="matrix(1.6873 -1.6873 0.7071 0.7071 -428.503 446.2835)">
			<stop  offset="0" style="stop-color:#E6E6E6"/>
			<stop  offset="1" style="stop-color:#E6E6E6;stop-opacity:0"/>
		</linearGradient>
		<path class="st4" d="M517.8,1152.4l-545,545c-47.9,47.9-125.6,47.9-173.5,0l-127.6-127.6c-47.9-47.9-47.9-125.6,0-173.5l545-545
			c47.9-47.9,125.6-47.9,173.5,0l127.6,127.6C565.7,1026.7,565.7,1104.4,517.8,1152.4z"/>
	</g>
</g>
<g>
	<defs>
		<rect id="SVGID_7_" width="1920" height="2160"/>
	</defs>
	<clipPath id="SVGID_8_">
		<use xlink:href="#SVGID_7_"  style="overflow:visible;"/>
	</clipPath>
	<g class="st5">
		
			<linearGradient id="SVGID_9_" gradientUnits="userSpaceOnUse" x1="1764.1096" y1="1511.4918" x2="331.4475" y2="1511.4918" gradientTransform="matrix(0.7071 -0.7071 0.7071 0.7071 -300.5727 318.3532)">
			<stop  offset="0" style="stop-color:#E6E6E6"/>
			<stop  offset="1" style="stop-color:#E6E6E6;stop-opacity:0"/>
		</linearGradient>
		<path class="st6" d="M1933.7,1230.5L1229,1935.2c-84,84-220.2,84-304.2,0l-704.7-704.7c-84-84-84-220.2,0-304.2l704.7-704.7
			c84-84,220.2-84,304.2,0l704.7,704.7C2017.7,1010.3,2017.7,1146.5,1933.7,1230.5z"/>
	</g>
	
		<linearGradient id="SVGID_10_" gradientUnits="userSpaceOnUse" x1="1189.2318" y1="2603.9717" x2="-243.4303" y2="2603.9717" gradientTransform="matrix(0.7071 -0.7071 0.7071 0.7071 -300.5727 318.3532)">
		<stop  offset="0" style="stop-color:#E6E6E6"/>
		<stop  offset="1" style="stop-color:#E6E6E6;stop-opacity:0"/>
	</linearGradient>
	<path class="st7" d="M2299.7,2409.5L1595,3114.2c-84,84-220.2,84-304.2,0l-704.7-704.7c-84-84-84-220.2,0-304.2l704.7-704.7
		c84-84,220.2-84,304.2,0l704.7,704.7C2383.7,2189.3,2383.7,2325.5,2299.7,2409.5z"/>
	
		<linearGradient id="SVGID_11_" gradientUnits="userSpaceOnUse" x1="2717.2896" y1="1075.9139" x2="1284.6274" y2="1075.9139" gradientTransform="matrix(0.7071 -0.7071 0.7071 0.7071 -300.5727 318.3532)">
		<stop  offset="0" style="stop-color:#E6E6E6"/>
		<stop  offset="1" style="stop-color:#E6E6E6;stop-opacity:0"/>
	</linearGradient>
	<path class="st8" d="M2299.7,248.5L1595,953.2c-84,84-220.2,84-304.2,0L586.2,248.5c-84-84-84-220.2,0-304.2l704.7-704.7
		c84-84,220.2-84,304.2,0l704.7,704.7C2383.7,28.3,2383.7,164.5,2299.7,248.5z"/>
</g>
</svg>
