<?xml version="1.0" encoding="utf-8"?>
<!-- Generator: Adobe Illustrator 21.0.2, SVG Export Plug-In . SVG Version: 6.00 Build 0)  -->
<svg version="1.1" id="Layer_1" xmlns="http://www.w3.org/2000/svg" xmlns:xlink="http://www.w3.org/1999/xlink" x="0px" y="0px"
	 viewBox="0 0 1920 2160" style="enable-background:new 0 0 1920 2160;" xml:space="preserve">
<style type="text/css">
	.st0{clip-path:url(#SVGID_2_);}
	.st1{opacity:0.4;fill:url(#SVGID_3_);}
	.st2{opacity:0.5;fill:url(#SVGID_4_);}
	.st3{opacity:0.2;fill:url(#SVGID_5_);}
	.st4{opacity:0.2;fill:url(#SVGID_6_);}
	.st5{clip-path:url(#SVGID_8_);}
	.st6{opacity:0.4;fill:url(#SVGID_9_);}
	.st7{opacity:0.5;clip-path:url(#SVGID_8_);fill:url(#SVGID_10_);}
	.st8{opacity:0.5;clip-path:url(#SVGID_8_);fill:url(#SVGID_11_);}
	.st9{clip-path:url(#SVGID_13_);}
	.st10{opacity:0.5;}
	.st11{fill:url(#SVGID_14_);}
	.st12{fill:url(#SVGID_15_);}
	.st13{fill:url(#SVGID_16_);}
</style>
<g>
</g>
<g>
	<defs>
		<rect id="SVGID_12_" width="1920" height="2160"/>
	</defs>
	<clipPath id="SVGID_2_">
		<use xlink:href="#SVGID_12_"  style="overflow:visible;"/>
	</clipPath>
	<g class="st0">
		<g class="st10">
			<linearGradient id="SVGID_3_" gradientUnits="userSpaceOnUse" x1="2286" y1="1103.0411" x2="321.7495" y2="1103.041">
				<stop  offset="0" style="stop-color:#E6E6E6"/>
				<stop  offset="1" style="stop-color:#E6E6E6;stop-opacity:0"/>
			</linearGradient>
			<path style="fill:url(#SVGID_3_);" d="M504,1295c-176.3,0-345.5-29.9-503-85v643.1c74.3,9.8,150,14.8,227,14.8
				c753.9,0,1394.5-484.7,1627.3-1159.5c26.8-77.6,48.1-157.7,63.7-239.9V338.1C1694,898.9,1145.3,1295,504,1295z"/>
		</g>
		<g class="st10">
			<linearGradient id="SVGID_4_" gradientUnits="userSpaceOnUse" x1="-276" y1="675.6349" x2="1188.1967" y2="675.6349">
				<stop  offset="0" style="stop-color:#E6E6E6"/>
				<stop  offset="1" style="stop-color:#E6E6E6;stop-opacity:0"/>
			</linearGradient>
			<path style="fill:url(#SVGID_4_);" d="M1,0.3V1197c185.3,98.3,396.6,154,621,154c366.4,0,698.1-148.5,938.3-388.6
				c-88.8,18.7-180.9,28.6-275.3,28.6C668.3,991,149.9,570.3,1,0.3z"/>
		</g>
		<g class="st10">
			<linearGradient id="SVGID_5_" gradientUnits="userSpaceOnUse" x1="960" y1="1835" x2="960" y2="41.3033">
				<stop  offset="0" style="stop-color:#E6E6E6"/>
				<stop  offset="1" style="stop-color:#E6E6E6;stop-opacity:0"/>
			</linearGradient>
			<path style="fill:url(#SVGID_5_);" d="M1,0v0.3C149.9,570.3,668.3,991,1285,991c94.4,0,186.5-9.9,275.3-28.6
				c103.3-21.8,202.1-55.6,295-99.9c21.6-10.3,42.8-21.1,63.7-32.5V622.6V305.8V0H1z"/>
		</g>
	</g>
</g>
</svg>
