<?xml version="1.0" encoding="utf-8"?>
<!-- Generator: Adobe Illustrator 21.0.2, SVG Export Plug-In . SVG Version: 6.00 Build 0)  -->
<svg version="1.1" id="Layer_1" xmlns="http://www.w3.org/2000/svg" xmlns:xlink="http://www.w3.org/1999/xlink" x="0px" y="0px"
	 viewBox="0 0 2000 1000" enable-background="new 0 0 2000 1000" xml:space="preserve">
<g>
	<linearGradient id="SVGID_1_" gradientUnits="userSpaceOnUse" x1="0" y1="500" x2="2000" y2="500">
		<stop  offset="0" style="stop-color:#FFFFFF"/>
		<stop  offset="1" style="stop-color:#F5F5F5"/>
	</linearGradient>
	<path fill="url(#SVGID_1_)" d="M1622.6,717.2c-94.8-69-193.9-136.6-311.1-181.2c-143.5-54.6-305.5-71.6-462.7-95.8
		C691.7,416.1,530.4,381.7,410,300.7C297.5,225,233.3,117.1,150.7,21.5c-6.2-7.2-12.6-14.4-19.3-21.5H0v438.5
		c26.1-15.4,65.2-30.9,123.9-42.5c146.4-28.8,404.8,10.9,544.2,51.6c139.4,40.6,266.9,108.8,354,201.4
		c28.7,30.5,53.9,64.2,93.4,86.7c52.2,29.7,120.6,34.9,184.6,44c202.7,28.6,476.3,107.6,642.8,220.4h57.1v-19.5
		C1903.5,881.7,1732.5,797.2,1622.6,717.2z"/>
	<path fill="#FFFFFF" d="M1115.5,735.6c-39.5-22.4-64.6-56.1-93.4-86.7c-87.2-92.6-214.6-160.7-354-201.4
		C528.7,407,270.3,367.2,123.9,396c-58.8,11.6-97.9,27-123.9,42.5v151.6c138.3-28.7,386.6-43,512.9-34.3
		c135.9,9.3,270,46.2,375.4,112.4c109.5,68.9,240.7,217.6,347.8,288.6c23.4,15.5,47.6,29.9,72.2,43.1h634.7
		c-166.5-112.8-440.1-191.8-642.8-220.4C1236.1,770.6,1167.8,765.3,1115.5,735.6z"/>
	<linearGradient id="SVGID_2_" gradientUnits="userSpaceOnUse" x1="995.231" y1="658.1855" x2="893.488" y2="919.6782">
		<stop  offset="0" style="stop-color:#FFFFFF"/>
		<stop  offset="1" style="stop-color:#DBDBDB"/>
	</linearGradient>
	<path fill="url(#SVGID_2_)" d="M1115.5,735.6c-39.5-22.4-64.6-56.1-93.4-86.7c-87.2-92.6-214.6-160.7-354-201.4
		C528.7,407,270.3,367.2,123.9,396c-58.8,11.6-97.9,27-123.9,42.5v151.6c138.3-28.7,386.6-43,512.9-34.3
		c135.9,9.3,270,46.2,375.4,112.4c109.5,68.9,240.7,217.6,347.8,288.6c23.4,15.5,47.6,29.9,72.2,43.1h634.7
		c-166.5-112.8-440.1-191.8-642.8-220.4C1236.1,770.6,1167.8,765.3,1115.5,735.6z"/>
	<path fill="#FFFFFF" d="M489.6,750.4c241.6,55.8,482.7,119.4,697.5,220.8c19.9,9.4,39.6,19.1,59.2,28.8h62
		c-24.6-13.3-48.8-27.6-72.2-43.1c-107.1-71-238.3-219.8-347.8-288.6C782.9,602,648.8,565.1,512.9,555.8
		c-126.3-8.7-374.6,5.6-512.9,34.3v111.2C139.8,702.6,383.8,725.9,489.6,750.4z"/>
	<linearGradient id="SVGID_3_" gradientUnits="userSpaceOnUse" x1="745.2281" y1="560.913" x2="643.485" y2="822.4056">
		<stop  offset="0" style="stop-color:#FFFFFF"/>
		<stop  offset="1" style="stop-color:#DBDBDB"/>
	</linearGradient>
	<path fill="url(#SVGID_3_)" d="M489.6,750.4c241.6,55.8,482.7,119.4,697.5,220.8c19.9,9.4,39.6,19.1,59.2,28.8h62
		c-24.6-13.3-48.8-27.6-72.2-43.1c-107.1-71-238.3-219.8-347.8-288.6C782.9,602,648.8,565.1,512.9,555.8
		c-126.3-8.7-374.6,5.6-512.9,34.3v111.2C139.8,702.6,383.8,725.9,489.6,750.4z"/>
	<linearGradient id="SVGID_4_" gradientUnits="userSpaceOnUse" x1="711.1862" y1="645.3912" x2="598.0187" y2="942.2233">
		<stop  offset="0" style="stop-color:#FFFFFF"/>
		<stop  offset="1" style="stop-color:#DBDBDB"/>
	</linearGradient>
	<path fill="url(#SVGID_4_)" d="M489.6,750.4c241.6,55.8,482.7,119.4,697.5,220.8c19.9,9.4,39.6,19.1,59.2,28.8h62
		c-24.6-13.3-48.8-27.6-72.2-43.1c-107.1-71-238.3-219.8-347.8-288.6C782.9,602,648.8,565.1,512.9,555.8
		c-126.3-8.7-374.6,5.6-512.9,34.3v111.2C139.8,702.6,383.8,725.9,489.6,750.4z"/>
	<path fill="#FFFFFF" d="M871,1000h375.3c-19.6-9.7-39.3-19.5-59.2-28.8c-214.7-101.3-455.9-165-697.5-220.8
		C383.8,725.9,139.8,702.6,0,701.3V910C290.2,848.8,612.1,883.1,871,1000z"/>
	<linearGradient id="SVGID_5_" gradientUnits="userSpaceOnUse" x1="737.0996" y1="557.7503" x2="635.3566" y2="819.243">
		<stop  offset="0" style="stop-color:#FFFFFF"/>
		<stop  offset="1" style="stop-color:#DBDBDB"/>
	</linearGradient>
	<path fill="url(#SVGID_5_)" d="M871,1000h375.3c-19.6-9.7-39.3-19.5-59.2-28.8c-214.7-101.3-455.9-165-697.5-220.8
		C383.8,725.9,139.8,702.6,0,701.3V910C290.2,848.8,612.1,883.1,871,1000z"/>
	<linearGradient id="SVGID_6_" gradientUnits="userSpaceOnUse" x1="702.6346" y1="642.131" x2="589.4672" y2="938.963">
		<stop  offset="0" style="stop-color:#FFFFFF"/>
		<stop  offset="1" style="stop-color:#DBDBDB"/>
	</linearGradient>
	<path fill="url(#SVGID_6_)" d="M871,1000h375.3c-19.6-9.7-39.3-19.5-59.2-28.8c-214.7-101.3-455.9-165-697.5-220.8
		C383.8,725.9,139.8,702.6,0,701.3V910C290.2,848.8,612.1,883.1,871,1000z"/>
	<linearGradient id="SVGID_7_" gradientUnits="userSpaceOnUse" x1="677.3836" y1="734.578" x2="530.5078" y2="1048.8451">
		<stop  offset="0" style="stop-color:#FFFFFF"/>
		<stop  offset="1" style="stop-color:#DBDBDB"/>
	</linearGradient>
	<path fill="url(#SVGID_7_)" d="M871,1000h375.3c-19.6-9.7-39.3-19.5-59.2-28.8c-214.7-101.3-455.9-165-697.5-220.8
		C383.8,725.9,139.8,702.6,0,701.3V910C290.2,848.8,612.1,883.1,871,1000z"/>
	<path fill="#FFFFFF" d="M1797.5,516.1c-123.2-76-272.8-132.7-433.8-150.6c-93.1-10.3-187.9-7.7-281.9-11.6
		c-224.7-9.4-457.5-62.5-604.3-184.1C416.1,119,372.6,58.7,327,0H131.4c6.6,7.1,13,14.3,19.3,21.5C233.3,117.1,297.5,225,410,300.7
		c120.3,81,281.6,115.4,438.8,139.5c157.2,24.1,319.2,41.1,462.7,95.8c117.2,44.6,216.3,112.2,311.1,181.2
		c109.9,80,280.9,164.6,377.4,263.3V676C1940.7,617.6,1873.9,563.3,1797.5,516.1z"/>
	<linearGradient id="SVGID_8_" gradientUnits="userSpaceOnUse" x1="1063.0419" y1="497.6887" x2="1208.2612" y2="93.7779">
		<stop  offset="0" style="stop-color:#FFFFFF"/>
		<stop  offset="1" style="stop-color:#E6E6E6"/>
	</linearGradient>
	<path fill="url(#SVGID_8_)" d="M1797.5,516.1c-123.2-76-272.8-132.7-433.8-150.6c-93.1-10.3-187.9-7.7-281.9-11.6
		c-224.7-9.4-457.5-62.5-604.3-184.1C416.1,119,372.6,58.7,327,0H131.4c6.6,7.1,13,14.3,19.3,21.5C233.3,117.1,297.5,225,410,300.7
		c120.3,81,281.6,115.4,438.8,139.5c157.2,24.1,319.2,41.1,462.7,95.8c117.2,44.6,216.3,112.2,311.1,181.2
		c109.9,80,280.9,164.6,377.4,263.3V676C1940.7,617.6,1873.9,563.3,1797.5,516.1z"/>
	<path fill="#FFFFFF" d="M1287.8,291.3c-191.4-43.7-372.8-112.4-525.6-206.8C718.9,57.8,677.9,29,637.4,0H327
		c45.6,58.7,89.1,119,150.5,169.8C624.3,291.5,857,344.5,1081.8,353.9c94,3.9,188.9,1.3,281.9,11.6c161,17.9,310.6,74.6,433.8,150.6
		c76.4,47.1,143.2,101.5,202.5,159.9V265.7c-129.7,37-263.8,64.9-402.3,64.9C1492.4,330.5,1388.2,314.2,1287.8,291.3z"/>
	<linearGradient id="SVGID_9_" gradientUnits="userSpaceOnUse" x1="1101.1558" y1="511.3918" x2="1246.3751" y2="107.4811">
		<stop  offset="0" style="stop-color:#FFFFFF"/>
		<stop  offset="1" style="stop-color:#DBDBDB"/>
	</linearGradient>
	<path fill="url(#SVGID_9_)" d="M1287.8,291.3c-191.4-43.7-372.8-112.4-525.6-206.8C718.9,57.8,677.9,29,637.4,0H327
		c45.6,58.7,89.1,119,150.5,169.8C624.3,291.5,857,344.5,1081.8,353.9c94,3.9,188.9,1.3,281.9,11.6c161,17.9,310.6,74.6,433.8,150.6
		c76.4,47.1,143.2,101.5,202.5,159.9V265.7c-129.7,37-263.8,64.9-402.3,64.9C1492.4,330.5,1388.2,314.2,1287.8,291.3z"/>
	<linearGradient id="SVGID_10_" gradientUnits="userSpaceOnUse" x1="1140.1594" y1="393.2888" x2="1322.071" y2="-37.6688">
		<stop  offset="0" style="stop-color:#FFFFFF"/>
		<stop  offset="0.3068" style="stop-color:#FFFFFF"/>
		<stop  offset="1" style="stop-color:#DBDBDB"/>
	</linearGradient>
	<path fill="url(#SVGID_10_)" d="M1287.8,291.3c-191.4-43.7-372.8-112.4-525.6-206.8C718.9,57.8,677.9,29,637.4,0H327
		c45.6,58.7,89.1,119,150.5,169.8C624.3,291.5,857,344.5,1081.8,353.9c94,3.9,188.9,1.3,281.9,11.6c161,17.9,310.6,74.6,433.8,150.6
		c76.4,47.1,143.2,101.5,202.5,159.9V265.7c-129.7,37-263.8,64.9-402.3,64.9C1492.4,330.5,1388.2,314.2,1287.8,291.3z"/>
	<path fill="#FFFFFF" d="M1978.2,0c-42.6,29.7-86.6,58.4-135.4,81.8c-151.5,72.7-346.8,89.4-515.5,44
		C1223,97.7,1132.3,48.6,1041.1,0H637.4c40.5,29,81.4,57.8,124.7,84.5c152.8,94.3,334.2,163.1,525.6,206.8
		c100.4,22.9,204.6,39.2,309.9,39.2c138.5,0,272.6-27.9,402.3-64.9V0H1978.2z"/>
	<linearGradient id="SVGID_11_" gradientUnits="userSpaceOnUse" x1="1173.2861" y1="537.3251" x2="1318.5055" y2="133.4144">
		<stop  offset="0" style="stop-color:#FFFFFF"/>
		<stop  offset="1" style="stop-color:#DBDBDB"/>
	</linearGradient>
	<path fill="url(#SVGID_11_)" d="M1978.2,0c-42.6,29.7-86.6,58.4-135.4,81.8c-151.5,72.7-346.8,89.4-515.5,44
		C1223,97.7,1132.3,48.6,1041.1,0H637.4c40.5,29,81.4,57.8,124.7,84.5c152.8,94.3,334.2,163.1,525.6,206.8
		c100.4,22.9,204.6,39.2,309.9,39.2c138.5,0,272.6-27.9,402.3-64.9V0H1978.2z"/>
	<linearGradient id="SVGID_12_" gradientUnits="userSpaceOnUse" x1="1198.3966" y1="417.8713" x2="1380.3082" y2="-13.0864">
		<stop  offset="0" style="stop-color:#FFFFFF"/>
		<stop  offset="0.3068" style="stop-color:#FFFFFF"/>
		<stop  offset="1" style="stop-color:#DBDBDB"/>
	</linearGradient>
	<path fill="url(#SVGID_12_)" d="M1978.2,0c-42.6,29.7-86.6,58.4-135.4,81.8c-151.5,72.7-346.8,89.4-515.5,44
		C1223,97.7,1132.3,48.6,1041.1,0H637.4c40.5,29,81.4,57.8,124.7,84.5c152.8,94.3,334.2,163.1,525.6,206.8
		c100.4,22.9,204.6,39.2,309.9,39.2c138.5,0,272.6-27.9,402.3-64.9V0H1978.2z"/>
	<linearGradient id="SVGID_13_" gradientUnits="userSpaceOnUse" x1="1298.9487" y1="280.3312" x2="1422.1475" y2="-638.9483">
		<stop  offset="0" style="stop-color:#FFFFFF"/>
		<stop  offset="1" style="stop-color:#DBDBDB"/>
	</linearGradient>
	<path fill="url(#SVGID_13_)" d="M1978.2,0c-42.6,29.7-86.6,58.4-135.4,81.8c-151.5,72.7-346.8,89.4-515.5,44
		C1223,97.7,1132.3,48.6,1041.1,0H637.4c40.5,29,81.4,57.8,124.7,84.5c152.8,94.3,334.2,163.1,525.6,206.8
		c100.4,22.9,204.6,39.2,309.9,39.2c138.5,0,272.6-27.9,402.3-64.9V0H1978.2z"/>
	<path fill="#FFFFFF" d="M0,910v90h871C612.1,883.1,290.2,848.8,0,910z"/>
	<linearGradient id="SVGID_14_" gradientUnits="userSpaceOnUse" x1="609.3948" y1="508.0622" x2="507.6517" y2="769.5549">
		<stop  offset="0" style="stop-color:#FFFFFF"/>
		<stop  offset="1" style="stop-color:#DBDBDB"/>
	</linearGradient>
	<path fill="url(#SVGID_14_)" d="M0,910v90h871C612.1,883.1,290.2,848.8,0,910z"/>
	<linearGradient id="SVGID_15_" gradientUnits="userSpaceOnUse" x1="573.5432" y1="592.9147" x2="460.3756" y2="889.7467">
		<stop  offset="0" style="stop-color:#FFFFFF"/>
		<stop  offset="1" style="stop-color:#DBDBDB"/>
	</linearGradient>
	<path fill="url(#SVGID_15_)" d="M0,910v90h871C612.1,883.1,290.2,848.8,0,910z"/>
	<linearGradient id="SVGID_16_" gradientUnits="userSpaceOnUse" x1="563.4081" y1="681.3104" x2="416.5323" y2="995.5775">
		<stop  offset="0" style="stop-color:#FFFFFF"/>
		<stop  offset="1" style="stop-color:#DBDBDB"/>
	</linearGradient>
	<path fill="url(#SVGID_16_)" d="M0,910v90h871C612.1,883.1,290.2,848.8,0,910z"/>
	<linearGradient id="SVGID_17_" gradientUnits="userSpaceOnUse" x1="529.4504" y1="830.5872" x2="189.9343" y2="1280.1534">
		<stop  offset="0" style="stop-color:#FFFFFF"/>
		<stop  offset="0.3068" style="stop-color:#FFFFFF"/>
		<stop  offset="1" style="stop-color:#DBDBDB"/>
	</linearGradient>
	<path fill="url(#SVGID_17_)" d="M0,910v90h871C612.1,883.1,290.2,848.8,0,910z"/>
	<path fill="#FFFFFF" d="M1842.8,81.8c48.8-23.4,92.8-52.1,135.4-81.8h-937.1c91.2,48.6,181.9,97.7,286.2,125.7
		C1496,171.2,1691.3,154.5,1842.8,81.8z"/>
	<linearGradient id="SVGID_18_" gradientUnits="userSpaceOnUse" x1="1300.0815" y1="582.9123" x2="1445.3009" y2="179.0015">
		<stop  offset="0" style="stop-color:#FFFFFF"/>
		<stop  offset="1" style="stop-color:#DBDBDB"/>
	</linearGradient>
	<path fill="url(#SVGID_18_)" d="M1842.8,81.8c48.8-23.4,92.8-52.1,135.4-81.8h-937.1c91.2,48.6,181.9,97.7,286.2,125.7
		C1496,171.2,1691.3,154.5,1842.8,81.8z"/>
	<linearGradient id="SVGID_19_" gradientUnits="userSpaceOnUse" x1="1312.8732" y1="466.193" x2="1494.7848" y2="35.2354">
		<stop  offset="0" style="stop-color:#FFFFFF"/>
		<stop  offset="0.3068" style="stop-color:#FFFFFF"/>
		<stop  offset="1" style="stop-color:#DBDBDB"/>
	</linearGradient>
	<path fill="url(#SVGID_19_)" d="M1842.8,81.8c48.8-23.4,92.8-52.1,135.4-81.8h-937.1c91.2,48.6,181.9,97.7,286.2,125.7
		C1496,171.2,1691.3,154.5,1842.8,81.8z"/>
	<linearGradient id="SVGID_20_" gradientUnits="userSpaceOnUse" x1="1469.0342" y1="303.1255" x2="1592.2328" y2="-616.1541">
		<stop  offset="0" style="stop-color:#FFFFFF"/>
		<stop  offset="1" style="stop-color:#DBDBDB"/>
	</linearGradient>
	<path fill="url(#SVGID_20_)" d="M1842.8,81.8c48.8-23.4,92.8-52.1,135.4-81.8h-937.1c91.2,48.6,181.9,97.7,286.2,125.7
		C1496,171.2,1691.3,154.5,1842.8,81.8z"/>
	<linearGradient id="SVGID_21_" gradientUnits="userSpaceOnUse" x1="1468.0087" y1="135.6434" x2="1675.912" y2="-541.4562">
		<stop  offset="0" style="stop-color:#FFFFFF"/>
		<stop  offset="1" style="stop-color:#DBDBDB"/>
	</linearGradient>
	<path fill="url(#SVGID_21_)" d="M1842.8,81.8c48.8-23.4,92.8-52.1,135.4-81.8h-937.1c91.2,48.6,181.9,97.7,286.2,125.7
		C1496,171.2,1691.3,154.5,1842.8,81.8z"/>
</g>
</svg>
