<?xml version="1.0" encoding="utf-8"?>
<!-- Generator: Adobe Illustrator 21.0.2, SVG Export Plug-In . SVG Version: 6.00 Build 0)  -->
<svg version="1.1" id="Layer_1" xmlns="http://www.w3.org/2000/svg" xmlns:xlink="http://www.w3.org/1999/xlink" x="0px" y="0px"
	 viewBox="0 0 2000 1000" enable-background="new 0 0 2000 1000" xml:space="preserve">
<g opacity="0.3">
	<g>
		<path fill="none" stroke="#FFFFFF" stroke-miterlimit="10" d="M991,665.5c-5.5-42.8-12.7-84.7-22.4-127.7
			C977.5,579.6,984.9,622.9,991,665.5z"/>
	</g>
	<g>
		<path fill="#B8B8B8" d="M986.5,1000h9.9c-216-64.2-421.7-108.8-648.8-83.9c-119.3,13.1-235,40.1-347.6,76.6v7.3h349.7
			C565.6,949.2,770.2,965.6,986.5,1000z"/>
	</g>
	<g>
		<path fill="#494949" d="M349.7,1000h16h617.9h2.9C770.2,965.6,565.6,949.2,349.7,1000z"/>
	</g>
	<g>
		<path fill="#ABABAB" d="M996.4,1000h4.5c-206.8-94.8-404.7-167.8-635.1-173.3c-123.8-3-245.7,9.2-365.8,31.6v31.9v102.5
			c112.6-36.5,228.2-63.5,347.6-76.6C574.6,891.2,780.4,935.8,996.4,1000z"/>
	</g>
	<g>
		<path fill="#969696" d="M365.8,826.7c230.4,5.5,428.3,78.4,635.1,173.3h2.4c-191.9-123-377.4-223.1-605-261.1
			C265.6,716.7,132.6,712.3,0,719.4v33.5v105.4C120.1,835.9,242,823.8,365.8,826.7z"/>
	</g>
	<g>
		<path fill="#8A8A8A" d="M398.3,738.9c227.6,38,413,138.1,605,261.1h1.5C841.7,859.7,680.2,736.8,475,665.2
			c-154.8-54-314-82.3-475-95.2v36.7v112.7C132.6,712.3,265.6,716.7,398.3,738.9z"/>
	</g>
	<g>
		<path fill="#BFBFBF" d="M1004.8,1000h1.1C864.8,839.1,721.7,694.1,531.6,592.1C362.3,501.3,183.7,443.8,0,404.1v40.1V570
			c161,12.8,320.2,41.2,475,95.2C680.2,736.8,841.7,859.7,1004.8,1000z"/>
	</g>
	<g>
		<path fill="#FFFFFF" d="M1006,1000h0.9C883.3,811.5,753.1,641.6,570.4,506.9C397.2,379.3,201.2,295.1,0,224v44.1v135.9
			c183.7,39.7,362.3,97.2,531.6,188C721.7,694.1,864.8,839.1,1006,1000z"/>
	</g>
	<g>
		<path fill="#F3F3F3" d="M1006.8,1000h0.7c-94.6-200.6-199.3-395.3-360-551.1C461.8,268.8,227.8,141.9,0,21.1v50.7V224
			c201.2,71,397.2,155.2,570.4,282.9C753.1,641.6,883.3,811.5,1006.8,1000z"/>
	</g>
	<g>
		<path fill="#E6E6E6" d="M1007.5,1000h0.6c-65.9-212-142.4-419.8-280.7-596.3C606.1,248.7,452.7,120,294.7,0H0v21.1
			c227.8,120.8,461.8,247.7,647.5,427.8C808.2,604.7,913,799.4,1007.5,1000z"/>
	</g>
	<g>
		<path fill="#CECECE" d="M812.2,369.2C734.6,233.6,633.8,113.1,524.8,0h-230c158,120,311.3,248.7,432.8,403.7
			C865.7,580.2,942.2,788,1008.2,1000h0.6C972.6,779.2,924.3,565.2,812.2,369.2z"/>
	</g>
	<g>
		<path fill="#AEAEAE" d="M1008.7,1000h1c1-12.3,2-24.6,2.9-36.9c-0.2,1.4-0.3,2.7-0.5,4.1c-5.2-117.9-9.5-212-21.1-301.8
			c-6.1-42.6-13.6-85.8-22.4-127.7c-13.3-58.7-31.3-119.4-56.3-187.7C864.7,220.2,806.5,107.6,729.1,0H524.8
			c109.1,113.1,209.8,233.6,287.4,369.2C924.3,565.2,972.6,779.2,1008.7,1000z"/>
	</g>
	<g>
		<path fill="#A7A7A7" d="M968.6,537.8c9.7,43,16.9,84.8,22.4,127.7c11.6,89.8,15.8,183.9,21.1,301.8c0.2-1.4,0.3-2.7,0.5-4.1
			c29.3-225.6,34.1-384.2-18.8-595.8C961.6,238.4,913.2,116.6,854.2,0H729.1c77.4,107.6,135.6,220.2,183.2,350.1
			C937.3,418.4,955.3,479.1,968.6,537.8z"/>
	</g>
	<g>
		<path fill="#9C9C9C" d="M1012.6,963.1c-0.9,12.3-1.9,24.6-2.9,36.9h0.7c57.8-222.1,96.5-432.9,63.8-662.8
			c-16.5-116.1-46-228.2-84.5-337.2H854.2c58.9,116.6,107.3,238.4,139.5,367.3C1046.7,578.9,1041.9,737.6,1012.6,963.1z"/>
	</g>
	<g>
		<path fill="#848484" d="M1010.4,1000h0.6c88.3-212.6,155-415.1,152.4-648.2c-1.3-119.4-16.6-236.6-41.3-351.8H989.7
			c38.5,109,68.1,221.1,84.5,337.2C1106.9,567.1,1068.2,777.9,1010.4,1000z"/>
	</g>
	<g>
		<path fill="#5E5E5E" d="M1011,1000h0.7c104.6-177.2,195.7-350.3,230.5-555.5c25.1-148.3,27.4-296.8,15.2-444.5h-135.2
			c24.8,115.2,40,232.4,41.3,351.8C1166,584.9,1099.3,787.4,1011,1000z"/>
	</g>
	<g>
		<path fill="#686868" d="M1642.1,967.1c-51.3,14.6-102.5,25.3-153.6,32.9h377.8c14.7-4.3,29.3-8.8,43.9-13.5
			c30.2-10,60.1-20.8,89.8-32.3V818.3C1886.7,879.9,1768,931.2,1642.1,967.1z"/>
	</g>
	<g>
		<path fill="#494949" d="M1910.2,986.5c-14.6,4.7-29.2,9.2-43.9,13.5h1.5H2000v-44.8v-1C1970.3,965.7,1940.4,976.5,1910.2,986.5z"
			/>
	</g>
	<g>
		<path fill="#414141" d="M1071,1000h417.5c51.2-7.6,102.3-18.3,153.6-32.9c125.9-35.8,244.5-87.2,357.9-148.8V662.2
			c-123.6,93.8-255.2,175.6-402.5,234.5C1427.9,964.5,1251.2,987.6,1071,1000z"/>
	</g>
	<g>
		<path fill="#474747" d="M1575.7,818.8c-170.8,95-357.3,142.5-547.1,181.2h42.4c180.1-12.4,356.9-35.5,526.5-103.3
			c147.2-58.8,278.9-140.7,402.5-234.5V475.2C1872.6,607.6,1735.1,730.1,1575.7,818.8z"/>
	</g>
	<g>
		<path fill="#4D4D4D" d="M1544.1,742.8c-156.9,119.4-339.4,192.1-523.7,257.2h8.2c189.8-38.7,376.4-86.2,547.1-181.2
			c159.4-88.7,296.9-211.2,424.3-343.6V229.8C1868.5,418.9,1725.9,604.5,1544.1,742.8z"/>
	</g>
	<g>
		<path fill="#6F6F6F" d="M1016.9,1000h3.5c184.2-65.1,366.7-137.9,523.7-257.2c181.9-138.3,324.5-323.9,455.9-513V0h-69.9
			C1815.3,239.7,1690,480.9,1502,669.4C1361.2,810.6,1192.4,908.9,1016.9,1000z"/>
	</g>
	<g>
		<path fill="#595959" d="M1014.8,1000h2c175.5-91.1,344.3-189.4,485.1-330.6C1690,480.9,1815.3,239.7,1930.1,0h-194.4
			c-67.8,212.5-153.1,416.3-286.6,600.9C1331.2,764,1177.3,884.4,1014.8,1000z"/>
	</g>
	<g>
		<path fill="#686868" d="M1013.5,1000h1.4c162.5-115.6,316.3-236,434.3-399.1C1582.6,416.3,1667.8,212.5,1735.7,0h-173.4
			c-32.3,175.1-81.8,346.1-160.2,508.8C1308,704,1169,852.6,1013.5,1000z"/>
	</g>
	<g>
		<path fill="#6F6F6F" d="M1012.5,1000h1C1169,852.6,1308,704,1402,508.8c78.4-162.7,127.9-333.8,160.2-508.8h-160.4
			c-7.4,153.4-29.3,305.7-74.5,454.8C1263.9,664.2,1147.2,830.9,1012.5,1000z"/>
	</g>
	<g>
		<path fill="#4B4B4B" d="M1242.1,444.5c-34.8,205.2-125.9,378.3-230.5,555.5h0.8c134.8-169.1,251.5-335.8,314.9-545.2
			c45.2-149.1,67.1-301.4,74.5-454.8h-144.6C1269.5,147.7,1267.2,296.2,1242.1,444.5z"/>
	</g>
</g>
</svg>
