<?xml version="1.0" encoding="UTF-8"?>
<svg width="1920px" height="885px" viewBox="0 0 1920 885" version="1.1" xmlns="http://www.w3.org/2000/svg" xmlns:xlink="http://www.w3.org/1999/xlink">
    <!-- Generator: Sketch 51.3 (57544) - http://www.bohemiancoding.com/sketch -->
    <title>v</title>
    <desc>Created with Sketch.</desc>
    <defs>
        <linearGradient x1="86.9954427%" y1="1.37972735%" x2="12.5569661%" y2="98.0059916%" id="linearGradient-1">
            <stop stop-color="#C33764" offset="0%"></stop>
            <stop stop-color="#1D2671" offset="100%"></stop>
        </linearGradient>
    </defs>
    <g id="v" stroke="none" stroke-width="1" fill="none" fill-rule="evenodd">
        <path d="M0,528.935405 C61.9911054,600.311456 117.480665,650.861538 166.468679,680.585649 C239.950699,725.171815 381.818455,805.323043 615.538124,831.056495 C849.257793,856.789946 1173.6971,805.743952 1324.92887,680.585649 C1343.63741,665.102596 1329.30477,671.780881 1375.37811,635.305908 C1421.45146,598.830936 1463.37297,584.253662 1542.42166,468.369645 C1601.17297,382.241241 1626.92658,279.979111 1634.30424,270.923686 C1706.92806,181.784339 1802.15998,140.743935 1920,147.802476 L1920,886 L1.21879174,886 L0,528.935405 Z" id="Path-24" fill="#F9F7F7"></path>
        <path d="M0.284499436,335.810491 L0.0551175217,529.254315 C0.0367455553,529.232933 0.018373048,529.211549 0,529.190164 L0.284499436,335.810491 Z M1920,7 L1920,147.800956 C1806.15038,143.134543 1711.63079,183.3026 1636.44124,268.305126 C1701.93229,131.210963 1796.45187,44.1092555 1920,7 Z M1376.59902,634.334654 C1361.22576,649.538847 1344.1641,665.012742 1324.92887,680.942379 C1173.6971,806.184841 849.257793,857.265159 615.538124,831.514404 C404.126573,808.221511 268.627813,739.969049 189.767544,694.496602 C341.233487,764.826725 521.849132,799.991787 731.614481,799.991787 C1001.14869,799.991787 1221.19414,739.952131 1376.59902,634.334654 Z" id="Combined-Shape" fill="url(#linearGradient-1)"></path>
    </g>
</svg>