<?xml version="1.0" encoding="UTF-8"?>
<svg width="1920px" height="303px" viewBox="0 0 1920 303" version="1.1" xmlns="http://www.w3.org/2000/svg" xmlns:xlink="http://www.w3.org/1999/xlink">
    <!-- Generator: Sketch 51.3 (57544) - http://www.bohemiancoding.com/sketch -->
    <title>Artboard</title>
    <desc>Created with Sketch.</desc>
    <defs>
        <linearGradient x1="0%" y1="0%" x2="101.999998%" y2="100.999999%" id="linearGradient-1">
            <stop stop-color="#260046" offset="0%"></stop>
            <stop stop-color="#215E96" offset="57.7966944%"></stop>
            <stop stop-color="#1CB5E0" offset="100%"></stop>
        </linearGradient>
    </defs>
    <g id="Artboard" stroke="none" stroke-width="1" fill="none" fill-rule="evenodd">
        <path d="M878.512798,150.41065 C576.619701,90.1164649 354.587731,30.3845297 5.48548474e-12,126.705672 L5.4606563e-12,120.809339 C151.68698,79.1315183 262.698644,55.9784835 333.034992,51.3502348 C526.849758,38.5969011 703.50124,78.6507088 878.512798,150.41065 Z" id="Combined-Shape" fill="url(#linearGradient-1)"></path>
        <path d="M0,303 L1920,303 L1920,0 C1764.88253,101 1645.22107,170.616902 1561.01563,208.850705 C1414.57499,275.342635 1300.20648,281.124377 1241.02344,277.964173 C1082.09766,269.477995 976.322909,183.638246 878.467749,150.400852 C574.985286,89.8182484 355.805219,29.7377349 6.47815135e-13,126.516375 C2.15938378e-13,144.569683 0,203.397558 0,303 Z" id="Path-16-Copy" fill="#F9F7F7"></path>
    </g>
</svg>