<?xml version="1.0" encoding="UTF-8"?>
<svg width="1920px" height="346px" viewBox="0 0 1920 346" version="1.1" xmlns="http://www.w3.org/2000/svg" xmlns:xlink="http://www.w3.org/1999/xlink">
    <!-- Generator: Sketch 51.3 (57544) - http://www.bohemiancoding.com/sketch -->
    <title>v</title>
    <desc>Created with Sketch.</desc>
    <defs>
        <linearGradient x1="48.706665%" y1="0%" x2="48.7066656%" y2="97.4215323%" id="linearGradient-1">
            <stop stop-color="#260046" offset="0%"></stop>
            <stop stop-color="#215E96" offset="57.7966944%"></stop>
            <stop stop-color="#1CB5E0" offset="100%"></stop>
        </linearGradient>
    </defs>
    <g id="v" stroke="none" stroke-width="1" fill="none" fill-rule="evenodd">
        <path d="M0.176896598,49.0195313 C269.548549,-3.53255208 487.658854,-0.149739583 654.507813,59.1679688 C904.78125,148.144531 1103.2279,332 1363.22828,332 C1536.56187,332 1722.15244,276.242056 1920,164.726167 L1920,346.040756 L0,346.040756 L0.176896598,49.0195313 Z" id="Path-20" fill="#F9F7F7" transform="translate(960.000000, 179.014948) scale(-1, 1) translate(-960.000000, -179.014948) "></path>
        <path d="M1173.98949,97.3729294 C1264.13966,54.9667132 1349.48967,21.5355271 1439.39917,11.0004135 C1577.52911,-5.18491184 1737.67332,-0.572021491 1919.83179,24.8390845 L1919.8231,50.0195312 C1650.45145,-2.53255208 1432.34115,0.850260417 1265.49219,60.1679687 C1234.25748,71.2724515 1203.83,83.8547324 1173.98937,97.3729868 Z M1084.92756,140.749249 C911.652037,229.901024 751.470343,333 556.771717,333 C383.438129,333 197.847556,277.242056 0,165.726167 L0,153.52153 C334.691443,301.483739 593.208054,343.10026 775.549832,278.371094 C892.154965,236.977656 992.318421,186.697514 1084.92756,140.749249 Z" id="Combined-Shape" fill="url(#linearGradient-1)"></path>
    </g>
</svg>