<?xml version="1.0" encoding="utf-8"?>
<!-- Generator: Adobe Illustrator 23.0.3, SVG Export Plug-In . SVG Version: 6.00 Build 0)  -->
<svg version="1.1" id="Layer_1" xmlns="http://www.w3.org/2000/svg" xmlns:xlink="http://www.w3.org/1999/xlink" x="0px" y="0px"
	 viewBox="0 0 1920 346" style="enable-background:new 0 0 1920 346;" xml:space="preserve">
<style type="text/css">
	.st0{fill-rule:evenodd;clip-rule:evenodd;fill:#FFFFFF;}
	.st1{fill-rule:evenodd;clip-rule:evenodd;fill:url(#Combined-Shape_1_);}
</style>
<title>v</title>
<desc>Created with Sketch.</desc>
<g id="v">
	<path id="Path-20" class="st0" d="M1919.8,49c-269.4-52.6-487.5-49.2-654.3,10.1C1015.2,148.1,816.8,332,556.8,332
		c-173.4,0-359-55.8-556.8-167.3V346h1920L1919.8,49z"/>
	
		<linearGradient id="Combined-Shape_1_" gradientUnits="userSpaceOnUse" x1="420.2812" y1="3.4755" x2="420.2812" y2="4.4496" gradientTransform="matrix(1919.8318 0 0 331.4462 -805909.375 -1150.4115)">
		<stop  offset="0" style="stop-color:#260046"/>
		<stop  offset="0.578" style="stop-color:#215E96"/>
		<stop  offset="1" style="stop-color:#1CB5E0"/>
	</linearGradient>
	<path id="Combined-Shape" class="st1" d="M1174,97.4c90.2-42.4,175.5-75.8,265.4-86.4c138.1-16.2,298.3-11.6,480.4,13.8V50
		c-269.4-52.6-487.5-49.2-654.3,10.1C1234.3,71.3,1203.8,83.9,1174,97.4L1174,97.4z M1084.9,140.7C911.7,229.9,751.5,333,556.8,333
		c-173.4,0-359-55.8-556.8-167.3v-12.2c334.7,148,593.2,189.6,775.5,124.8C892.2,237,992.3,186.7,1084.9,140.7z"/>
</g>
</svg>
