<?xml version="1.0" encoding="UTF-8"?>
<svg width="1920px" height="357px" viewBox="0 0 1920 357" version="1.1" xmlns="http://www.w3.org/2000/svg" xmlns:xlink="http://www.w3.org/1999/xlink">
    <!-- Generator: Sketch 51.3 (57544) - http://www.bohemiancoding.com/sketch -->
    <title>Group</title>
    <desc>Created with Sketch.</desc>
    <defs>
        <linearGradient x1="52.5465902%" y1="-10.0999881%" x2="52.5465906%" y2="102.764764%" id="linearGradient-1">
            <stop stop-color="#260046" offset="0%"></stop>
            <stop stop-color="#215E96" offset="49.2676443%"></stop>
            <stop stop-color="#1CB5E0" offset="100%"></stop>
        </linearGradient>
    </defs>
    <g id="Page-2" stroke="none" stroke-width="1" fill="none" fill-rule="evenodd">
        <g id="v">
            <g id="Group" transform="translate(0.000000, -472.000000)">
                <path d="M0,829 L1920,829 L1920,472 C1627.40885,787.714777 1355.5625,887.72891 1104.46094,772.042398 C727.808594,598.512631 438.966801,462.026435 2.68951528e-13,581.37191 C4.94028892e-12,627.457303 4.85063841e-12,710 0,829 Z" id="Path-16-Copy" fill="#F9F7F7"></path>
                <path d="M1920,0 L1920,471.831618 L1920,0 Z M1795.3,594.295665 C1549.80296,811.411309 1319.52328,870.486197 1104.46094,771.520331 C830.147377,645.288655 602.409572,538.682168 329.334052,536.11813 C330.579964,536.038712 331.813611,535.958837 333.034992,535.878503 C589.687939,518.997783 839.500961,581.681754 1048.75024,713.937096 C1268.79262,853.014181 1517.64263,813.133617 1795.30029,594.295404 Z M213.805977,541.188196 C146.152826,547.702576 75.284255,560.630587 5.45696821e-12,581.074602 L4.78319959e-12,545.202134 C83.6336559,544.325724 154.902244,542.987751 213.805766,541.188216 Z" id="Combined-Shape" fill="url(#linearGradient-1)"></path>
            </g>
        </g>
    </g>
</svg>