<?xml version="1.0" encoding="utf-8"?>
<!-- Generator: Adobe Illustrator 23.0.3, SVG Export Plug-In . SVG Version: 6.00 Build 0)  -->
<svg version="1.1" id="Layer_1" xmlns="http://www.w3.org/2000/svg" xmlns:xlink="http://www.w3.org/1999/xlink" x="0px" y="0px"
	 viewBox="0 0 1920 357" style="enable-background:new 0 0 1920 357;" xml:space="preserve">
<style type="text/css">
	.st0{fill-rule:evenodd;clip-rule:evenodd;fill:#FFFFFF;}
	.st1{fill-rule:evenodd;clip-rule:evenodd;fill:url(#Combined-Shape_1_);}
</style>
<title>Group</title>
<desc>Created with Sketch.</desc>
<g id="v">
	<g id="Group" transform="translate(0.000000, -472.000000)">
		<path id="Path-16-Copy" class="st0" d="M0,829h1920V472c-292.6,315.7-564.4,415.7-815.5,300C727.8,598.5,439,462,0,581.4
			C0,627.5,0,710,0,829z"/>
		
			<linearGradient id="Combined-Shape_1_" gradientUnits="userSpaceOnUse" x1="420.2813" y1="1.2951" x2="420.2813" y2="2.4238" gradientTransform="matrix(1920 0 0 817.9999 -805980 -1141.954)">
			<stop  offset="0" style="stop-color:#260046"/>
			<stop  offset="0.4927" style="stop-color:#215E96"/>
			<stop  offset="1" style="stop-color:#1CB5E0"/>
		</linearGradient>
		<path id="Combined-Shape" class="st1" d="M1920,0v471.8V0z M1795.3,594.3c-245.5,217.1-475.8,276.2-690.8,177.2
			C830.1,645.3,602.4,538.7,329.3,536.1c1.2-0.1,2.5-0.2,3.7-0.2C589.7,519,839.5,581.7,1048.7,714
			C1268.8,853,1517.6,813.1,1795.3,594.3L1795.3,594.3z M213.8,541.2C146.2,547.7,75.3,560.6,0,581.1v-35.9
			C83.6,544.3,154.9,543,213.8,541.2L213.8,541.2z"/>
	</g>
</g>
</svg>
